<?xml version="1.0"?>
<svg xmlns="http://www.w3.org/2000/svg" height="512px" viewBox="0 0 412.04229 412" width="512px" class=""><g><path d="m346.042969 66.019531c77.328125 77.332031 77.328125 202.710938 0 280.039063-77.332031 77.332031-202.710938 77.332031-280.039063 0zm0 0" fill="#d7443e" data-original="#D7443E" class="active-path" style="fill:#000000" data-old_color="#080000"/><path d="m346.042969 66.019531-280.039063 280.039063c-77.332031-77.328125-77.332031-202.707032 0-280.039063 77.328125-77.328125 202.707032-77.328125 280.039063 0zm0 0" fill="#d7443e" data-original="#D7443E" class="active-path" style="fill:#000000" data-old_color="#080000"/><g fill="#083863"><path d="m206.023438.0234375c-83.328126-.0039063-158.453126 50.1914065-190.339844 127.1796875-31.890625 76.984375-14.261719 165.597656 44.660156 224.519531 80.457031 80.453125 210.902344 80.453125 291.359375-.003906 80.453125-80.457031 80.453125-210.902344-.003906-291.355469-38.550781-38.761719-91.007813-60.492187-145.675781-60.3398435zm-134.363282 71.6523435c72.003906-72.007812 187.976563-74.449219 262.941406-5.53125l-268.472656 268.476563c-68.917968-74.96875-66.480468-190.941406 5.53125-262.945313zm268.722656 268.726563c-72 72.011718-187.972656 74.453125-262.941406 5.539062l268.480469-268.484375c68.917969 74.96875 66.476563 190.941407-5.53125 262.945313zm0 0" data-original="#000000" class="" style="fill:#000000" data-old_color="#010000"/><path d="m188.195312 176.691406-11.519531 11.523438c-3.125 3.121094-3.125 8.1875 0 11.3125s8.1875 3.125 11.3125 0l11.519531-11.519532c2.058594-2.015624 2.878907-4.976562 2.144532-7.761718s-2.910156-4.960938-5.695313-5.695313c-2.785156-.734375-5.746093.082031-7.761719 2.140625zm0 0" data-original="#000000" class="" style="fill:#000000" data-old_color="#010000"/><path d="m218.191406 237.730469c2.121094.003906 4.160156-.839844 5.65625-2.34375l11.519532-11.519531c3.125-3.125 3.125-8.191407 0-11.3125-3.121094-3.125-8.1875-3.125-11.3125 0l-11.519532 11.519531c-2.285156 2.285156-2.972656 5.726562-1.734375 8.714843 1.238281 2.992188 4.15625 4.941407 7.390625 4.941407zm0 0" data-original="#000000" class="" style="fill:#000000" data-old_color="#010000"/><path d="m217.023438 147.882812-11.53125 11.519532c-2.058594 2.011718-2.878907 4.976562-2.144532 7.757812.734375 2.785156 2.90625 4.960938 5.691406 5.695313 2.78125.738281 5.746094-.078125 7.761719-2.136719l11.53125-11.519531c2.042969-2.015625 2.847657-4.972657 2.109375-7.746094-.734375-2.773437-2.898437-4.941406-5.671875-5.679687-2.773437-.738282-5.730469.066406-7.746093 2.109374zm0 0" data-original="#000000" class="" style="fill:#000000" data-old_color="#010000"/><path d="m247.003906 208.917969c2.121094.003906 4.160156-.839844 5.660156-2.34375l11.515626-11.535157c2.96875-3.148437 2.894531-8.089843-.167969-11.148437s-8.003907-3.125-11.148438-.152344l-11.519531 11.53125c-2.285156 2.289063-2.96875 5.730469-1.730469 8.71875s4.152344 4.933594 7.390625 4.9375zm0 0" data-original="#000000" class="" style="fill:#000000" data-old_color="#010000"/><path d="m245.820312 119.066406-11.519531 11.53125c-3.121093 3.125-3.117187 8.191406.007813 11.3125s8.191406 3.121094 11.3125-.007812l11.519531-11.527344c2.039063-2.019531 2.84375-4.976562 2.105469-7.75-.738282-2.769531-2.90625-4.9375-5.679688-5.671875-2.773437-.734375-5.726562.070313-7.746094 2.113281zm0 0" data-original="#000000" class="" style="fill:#000000" data-old_color="#010000"/><path d="m275.8125 180.101562c2.121094 0 4.15625-.839843 5.652344-2.34375l11.53125-11.519531c3.09375-3.128906 3.082031-8.167969-.027344-11.277343-3.109375-3.113282-8.148438-3.128907-11.28125-.039063l-11.53125 11.519531c-2.289062 2.285156-2.972656 5.726563-1.734375 8.71875 1.238281 2.988282 4.152344 4.941406 7.390625 4.941406zm0 0" data-original="#000000" class="" style="fill:#000000" data-old_color="#010000"/><path d="m159.382812 205.507812-11.519531 11.53125c-2.117187 2.003907-2.980469 4.996094-2.25 7.816407.730469 2.820312 2.933594 5.023437 5.753907 5.746093 2.824218.726563 5.816406-.140624 7.8125-2.261718l11.519531-11.53125c3.09375-3.128906 3.074219-8.167969-.039063-11.277344-3.109375-3.109375-8.148437-3.121094-11.277344-.03125zm0 0" data-original="#000000" class="" style="fill:#000000" data-old_color="#010000"/><path d="m189.371094 266.539062c2.121094.003907 4.152344-.839843 5.652344-2.339843l11.527343-11.519531c2.0625-2.011719 2.878907-4.976563 2.148438-7.761719-.734375-2.785157-2.910157-4.960938-5.691407-5.695313-2.785156-.734375-5.75.082032-7.765624 2.136719l-11.519532 11.523437c-2.289062 2.285157-2.976562 5.726563-1.738281 8.714844 1.238281 2.988282 4.152344 4.941406 7.386719 4.941406zm0 0" data-original="#000000" class="" style="fill:#000000" data-old_color="#010000"/><path d="m130.578125 234.320312-11.53125 11.519532c-2.042969 2.015625-2.847656 4.972656-2.113281 7.746094.738281 2.773437 2.902344 4.941406 5.675781 5.679687s5.730469-.066406 7.746094-2.109375l11.53125-11.519531c2.058593-2.011719 2.878906-4.976563 2.144531-7.757813-.734375-2.785156-2.90625-4.960937-5.691406-5.699218-2.78125-.734376-5.746094.082031-7.761719 2.140624zm0 0" data-original="#000000" class="" style="fill:#000000" data-old_color="#010000"/><path d="m160.5625 295.359375c2.125.003906 4.160156-.839844 5.660156-2.34375l11.519532-11.53125c3.089843-3.132813 3.070312-8.171875-.039063-11.28125-3.113281-3.109375-8.152344-3.121094-11.28125-.027344l-11.519531 11.53125c-2.285156 2.289063-2.96875 5.726563-1.730469 8.714844s4.15625 4.9375 7.390625 4.9375zm0 0" data-original="#000000" class="" style="fill:#000000" data-old_color="#010000"/><path d="m101.769531 263.132812-11.53125 11.519532c-2.058593 2.011718-2.878906 4.976562-2.144531 7.757812.734375 2.785156 2.90625 4.960938 5.691406 5.695313 2.78125.738281 5.746094-.078125 7.761719-2.136719l11.53125-11.519531c2.042969-2.015625 2.847656-4.972657 2.109375-7.746094-.734375-2.773437-2.898438-4.941406-5.671875-5.679687-2.773437-.738282-5.730469.066406-7.746094 2.109374zm0 0" data-original="#000000" class="" style="fill:#000000" data-old_color="#010000"/><path d="m131.753906 324.167969c2.121094.003906 4.160156-.839844 5.660156-2.34375l11.515626-11.53125c3.066406-3.132813 3.035156-8.152344-.066407-11.25-3.101562-3.097657-8.117187-3.125-11.25-.058594l-11.519531 11.53125c-2.285156 2.289063-2.96875 5.730469-1.730469 8.71875s4.152344 4.933594 7.390625 4.933594zm0 0" data-original="#000000" class="" style="fill:#000000" data-old_color="#010000"/><path d="m67.722656 316.488281c2.121094.003907 4.160156-.839843 5.660156-2.34375l11.519532-11.53125c2.054687-2.011719 2.875-4.976562 2.136718-7.761719-.734374-2.785156-2.910156-4.957031-5.695312-5.691406s-5.75.085938-7.761719 2.144532l-11.519531 11.53125c-2.285156 2.289062-2.96875 5.730468-1.730469 8.71875 1.238281 2.988281 4.15625 4.933593 7.390625 4.933593zm0 0" data-original="#000000" class="" style="fill:#000000" data-old_color="#010000"/><path d="m120.761719 327.164062c-3.125-3.121093-8.191407-3.121093-11.3125 0l-11.53125 11.519532c-2.121094 2-2.984375 4.992187-2.257813 7.8125.722656 2.824218 2.925782 5.027344 5.746094 5.753906 2.820312.730469 5.816406-.132812 7.816406-2.25l11.53125-11.519531c3.125-3.125 3.128906-8.1875.007813-11.316407zm0 0" data-original="#000000" class="" style="fill:#000000" data-old_color="#010000"/><path d="m274.632812 90.257812-11.519531 11.527344c-2.058593 2.015625-2.875 4.980469-2.136719 7.761719.734376 2.785156 2.910157 4.957031 5.695313 5.691406 2.78125.734375 5.746094-.085937 7.757813-2.144531l11.519531-11.53125c3.09375-3.128906 3.074219-8.167969-.039063-11.277344-3.109375-3.109375-8.148437-3.121094-11.277344-.027344zm0 0" data-original="#000000" class="" style="fill:#000000" data-old_color="#010000"/><path d="m304.621094 151.289062c2.121094.003907 4.15625-.839843 5.65625-2.339843l11.527344-11.519531c2.0625-2.011719 2.878906-4.976563 2.148437-7.761719-.734375-2.785157-2.910156-4.960938-5.691406-5.695313-2.785157-.734375-5.75.082032-7.761719 2.136719l-11.53125 11.523437c-2.289062 2.285157-2.976562 5.726563-1.738281 8.71875 1.238281 2.988282 4.15625 4.9375 7.390625 4.9375zm0 0" data-original="#000000" class="" style="fill:#000000" data-old_color="#010000"/><path d="m291.28125 84.914062c3.125 3.125 8.191406 3.125 11.316406 0l11.527344-11.519531c2.972656-3.144531 2.90625-8.085937-.15625-11.148437-3.058594-3.0625-7.996094-3.136719-11.148438-.164063l-11.527343 11.519531c-3.128907 3.121094-3.132813 8.1875-.011719 11.3125zm0 0" data-original="#000000" class="" style="fill:#000000" data-old_color="#010000"/><path d="m338.664062 97.941406-11.519531 11.527344c-2.058593 2.015625-2.875 4.980469-2.140625 7.761719.738282 2.785156 2.914063 4.960937 5.695313 5.691406 2.785156.734375 5.75-.085937 7.761719-2.144531l11.519531-11.53125c2.058593-2.011719 2.875-4.976563 2.140625-7.761719-.738282-2.78125-2.914063-4.957031-5.699219-5.691406-2.78125-.730469-5.746094.085937-7.757813 2.148437zm0 0" data-original="#000000" class="" style="fill:#000000" data-old_color="#010000"/><path d="m241.347656 229.832031-11.53125 11.53125c-2.058594 2.011719-2.878906 4.976563-2.144531 7.761719s2.910156 4.957031 5.695313 5.691406c2.785156.738282 5.746093-.082031 7.761718-2.140625l11.53125-11.527343c2.039063-2.019532 2.84375-4.972657 2.109375-7.746094-.738281-2.773438-2.902343-4.941406-5.675781-5.679688-2.773438-.734375-5.730469.070313-7.746094 2.109375zm0 0" data-original="#000000" class="" style="fill:#000000" data-old_color="#010000"/><path d="m270.152344 201.023438-11.519532 11.53125c-3.125 3.125-3.121093 8.191406.003907 11.316406 3.125 3.121094 8.191406 3.121094 11.3125-.007813l11.523437-11.527343c3.121094-3.125 3.121094-8.191407-.003906-11.316407-3.128906-3.121093-8.191406-3.121093-11.316406.003907zm0 0" data-original="#000000" class="" style="fill:#000000" data-old_color="#010000"/><path d="m298.964844 172.214844-11.519532 11.519531c-3.125 3.121094-3.125 8.1875 0 11.3125s8.191407 3.125 11.3125 0l11.519532-11.519531c3.125-3.125 3.125-8.191406 0-11.316406-3.125-3.121094-8.1875-3.121094-11.3125.003906zm0 0" data-original="#000000" class="" style="fill:#000000" data-old_color="#010000"/><path d="m212.539062 258.652344-11.53125 11.519531c-2.042968 2.015625-2.847656 4.96875-2.113281 7.746094.738281 2.773437 2.902344 4.9375 5.675781 5.675781 2.773438.738281 5.726563-.0625 7.746094-2.105469l11.53125-11.519531c2.058594-2.011719 2.878906-4.976562 2.144532-7.761719-.734376-2.78125-2.90625-4.957031-5.691407-5.695312-2.785156-.734375-5.75.082031-7.761719 2.140625zm0 0" data-original="#000000" class="" style="fill:#000000" data-old_color="#010000"/><path d="m183.714844 287.464844-11.519532 11.519531c-3.125 3.121094-3.125 8.1875 0 11.3125s8.191407 3.125 11.3125 0l11.519532-11.519531c3.125-3.125 3.125-8.191406 0-11.316406-3.125-3.121094-8.1875-3.121094-11.3125.003906zm0 0" data-original="#000000" class="" style="fill:#000000" data-old_color="#010000"/><path d="m154.90625 316.273438-11.53125 11.53125c-2.058594 2.011718-2.875 4.976562-2.140625 7.757812.734375 2.785156 2.90625 4.960938 5.691406 5.695312 2.785157.734376 5.75-.082031 7.761719-2.140624l11.53125-11.53125c2.058594-2.011719 2.875-4.976563 2.140625-7.761719-.734375-2.78125-2.90625-4.957031-5.691406-5.691407-2.785157-.734374-5.75.082032-7.761719 2.140626zm0 0" data-original="#000000" class="" style="fill:#000000" data-old_color="#010000"/><path d="m126.738281 344.449219-11.53125 11.523437c-2.058593 2.011719-2.878906 4.972656-2.144531 7.757813.734375 2.785156 2.90625 4.960937 5.691406 5.695312 2.785156.738281 5.75-.078125 7.761719-2.136719l11.53125-11.519531c2.058594-2.011719 2.878906-4.976562 2.144531-7.761719-.734375-2.785156-2.90625-4.960937-5.691406-5.695312-2.78125-.734375-5.746094.082031-7.761719 2.136719zm0 0" data-original="#000000" class="" style="fill:#000000" data-old_color="#010000"/><path d="m327.785156 143.394531-11.53125 11.527344c-3.125 3.125-3.125 8.191406 0 11.316406s8.191406 3.125 11.316406 0l11.527344-11.527343c3.125-3.125 3.125-8.191407 0-11.316407-3.121094-3.121093-8.1875-3.121093-11.3125 0zm0 0" data-original="#000000" class="" style="fill:#000000" data-old_color="#010000"/><path d="m344.4375 138.070312c3.125 3.121094 8.191406 3.117188 11.3125-.007812l11.519531-11.527344c2.058594-2.015625 2.875-4.980468 2.140625-7.765625-.738281-2.78125-2.910156-4.957031-5.695312-5.6875-2.785156-.734375-5.75.085938-7.761719 2.144531l-11.519531 11.53125c-3.125 3.125-3.121094 8.1875.003906 11.3125zm0 0" data-original="#000000" class="" style="fill:#000000" data-old_color="#010000"/><path d="m165.042969 184.589844c2.121093.003906 4.15625-.839844 5.65625-2.34375l11.527343-11.527344c2.058594-2.015625 2.878907-4.980469 2.144532-7.761719-.734375-2.785156-2.910156-4.960937-5.691406-5.695312-2.785157-.734375-5.75.082031-7.761719 2.140625l-11.53125 11.53125c-2.289063 2.289062-2.972657 5.726562-1.734375 8.71875 1.238281 2.988281 4.152344 4.9375 7.390625 4.9375zm0 0" data-original="#000000" class="" style="fill:#000000" data-old_color="#010000"/><path d="m193.851562 155.769531c2.121094.003907 4.15625-.839843 5.65625-2.339843l11.53125-11.519532c2.039063-2.015625 2.847657-4.972656 2.109376-7.746094-.734376-2.773437-2.902344-4.941406-5.671876-5.679687-2.773437-.738281-5.730468.066406-7.75 2.105469l-11.527343 11.519531c-2.289063 2.289063-2.976563 5.730469-1.738281 8.71875 1.238281 2.992187 4.15625 4.941406 7.390624 4.941406zm0 0" data-original="#000000" class="" style="fill:#000000" data-old_color="#010000"/><path d="m222.671875 126.960938c2.121094 0 4.160156-.839844 5.660156-2.34375l11.515625-11.519532c3.125-3.125 3.125-8.191406 0-11.316406-3.121094-3.121094-8.1875-3.121094-11.3125 0l-11.519531 11.523438c-2.289063 2.285156-2.972656 5.726562-1.734375 8.714843 1.238281 2.992188 4.15625 4.941407 7.390625 4.941407zm0 0" data-original="#000000" class="" style="fill:#000000" data-old_color="#010000"/><path d="m136.230469 213.398438c2.125.003906 4.160156-.839844 5.660156-2.34375l11.523437-11.53125c3.121094-3.125 3.121094-8.191407-.007812-11.3125-3.125-3.125-8.191406-3.121094-11.3125.003906l-11.519531 11.53125c-2.289063 2.289062-2.972657 5.726562-1.734375 8.714844 1.238281 2.992187 4.15625 4.9375 7.390625 4.9375zm0 0" data-original="#000000" class="" style="fill:#000000" data-old_color="#010000"/><path d="m107.421875 242.210938c2.121094 0 4.160156-.839844 5.660156-2.34375l11.515625-11.519532c3.125-3.125 3.125-8.191406 0-11.316406-3.121094-3.121094-8.1875-3.121094-11.3125 0l-11.519531 11.523438c-2.289063 2.285156-2.972656 5.726562-1.734375 8.714843 1.238281 2.992188 4.15625 4.941407 7.390625 4.941407zm0 0" data-original="#000000" class="" style="fill:#000000" data-old_color="#010000"/><path d="m78.601562 271.03125c2.121094 0 4.160157-.839844 5.65625-2.34375l11.53125-11.53125c3.125-3.125 3.125-8.191406.003907-11.316406-3.125-3.125-8.191407-3.125-11.316407 0l-11.53125 11.53125c-2.289062 2.285156-2.972656 5.726562-1.734374 8.71875 1.238281 2.988281 4.15625 4.9375 7.390624 4.9375zm0 0" data-original="#000000" class="" style="fill:#000000" data-old_color="#010000"/><path d="m67.605469 274.011719c-3.125-3.125-8.191407-3.121094-11.3125.003906l-11.519531 11.53125c-2.058594 2.011719-2.875 4.976563-2.140626 7.761719.738282 2.785156 2.914063 4.957031 5.699219 5.691406 2.78125.734375 5.746094-.085938 7.757813-2.144531l11.519531-11.53125c3.125-3.125 3.121094-8.191407-.003906-11.3125zm0 0" data-original="#000000" class="" style="fill:#000000" data-old_color="#010000"/><path d="m251.480469 98.148438c2.125.003906 4.160156-.839844 5.65625-2.339844l11.53125-11.53125c2.058593-2.011719 2.878906-4.976563 2.144531-7.761719-.738281-2.785156-2.910156-4.957031-5.695312-5.695313-2.785157-.734374-5.746094.085938-7.761719 2.144532l-11.53125 11.527344c-2.285157 2.289062-2.96875 5.730468-1.734375 8.71875 1.238281 2.988281 4.15625 4.9375 7.390625 4.9375zm0 0" data-original="#000000" class="" style="fill:#000000" data-old_color="#010000"/><path d="m279.652344 69.96875c2.121094.003906 4.15625-.839844 5.652344-2.339844l11.53125-11.519531c3.066406-3.132813 3.039062-8.148437-.058594-11.25s-8.113282-3.132813-11.25-.070313l-11.527344 11.523438c-2.289062 2.285156-2.976562 5.726562-1.738281 8.71875 1.238281 2.988281 4.152343 4.9375 7.390625 4.9375zm0 0" data-original="#000000" class="" style="fill:#000000" data-old_color="#010000"/></g></g> </svg>
